<svg xmlns="http://www.w3.org/2000/svg" xmlns:xlink="http://www.w3.org/1999/xlink" viewBox="0 0 183.88 1.38"><defs><style>.cls-1{fill:url(#radial-gradient);}.cls-2{fill:#9dcdf1;}</style><radialGradient id="radial-gradient" cx="91.94" cy="0.69" r="65.01" gradientUnits="userSpaceOnUse"><stop offset="0" stop-color="#e2f0ff"/><stop offset="0.6" stop-color="#c7e8f6"/><stop offset="1" stop-color="#bae4f2"/></radialGradient></defs><g id="Layer_2" data-name="Layer 2"><g id="Layer_1-2" data-name="Layer 1"><line class="cls-1" y1="0.69" x2="183.88" y2="0.69"/><polygon class="cls-2" points="0 0.63 1.5 0.58 1.5 0.8 0 0.76 0 0.63"/><polygon class="cls-2" points="4.46 0.5 7.43 0.43 7.43 0.95 4.46 0.88 4.46 0.5"/><polygon class="cls-2" points="10.4 0.37 13.36 0.32 13.36 1.06 10.4 1.01 10.4 0.37"/><polygon class="cls-2" points="16.33 0.28 19.29 0.23 19.29 1.15 16.33 1.1 16.33 0.28"/><polygon class="cls-2" points="22.26 0.2 25.22 0.18 25.22 1.2 22.26 1.18 22.26 0.2"/><polygon class="cls-2" points="28.19 0.16 31.15 0.14 31.15 1.24 28.19 1.22 28.19 0.16"/><polygon class="cls-2" points="34.12 0.12 37.08 0.11 37.08 1.27 34.12 1.26 34.12 0.12"/><polygon class="cls-2" points="40.05 0.12 43.01 0.14 43.01 1.24 40.05 1.26 40.05 0.12"/><polygon class="cls-2" points="45.98 0.15 48.94 0.19 48.94 1.19 45.98 1.23 45.98 0.15"/><polygon class="cls-2" points="51.91 0.24 54.88 0.29 54.88 1.09 51.91 1.14 51.91 0.24"/><polygon class="cls-2" points="57.84 0.33 60.8 0.38 60.8 1 57.84 1.05 57.84 0.33"/><polygon class="cls-2" points="63.77 0.43 66.74 0.45 66.74 0.93 63.77 0.95 63.77 0.43"/><polygon class="cls-2" points="69.7 0.47 72.67 0.49 72.67 0.89 69.7 0.91 69.7 0.47"/><polygon class="cls-2" points="75.63 0.48 78.6 0.47 78.6 0.91 75.63 0.9 75.63 0.48"/><polygon class="cls-2" points="81.56 0.46 84.53 0.43 84.53 0.95 81.56 0.92 81.56 0.46"/><polygon class="cls-2" points="87.49 0.39 90.46 0.35 90.46 1.03 87.49 0.99 87.49 0.39"/><polygon class="cls-2" points="93.42 0.32 96.39 0.28 96.39 1.1 93.42 1.06 93.42 0.32"/><polygon class="cls-2" points="99.35 0.24 102.32 0.2 102.32 1.18 99.35 1.14 99.35 0.24"/><polygon class="cls-2" points="105.28 0.17 108.25 0.13 108.25 1.25 105.28 1.21 105.28 0.17"/><polygon class="cls-2" points="111.22 0.1 114.18 0.08 114.18 1.3 111.22 1.28 111.22 0.1"/><polygon class="cls-2" points="117.14 0.07 120.11 0.05 120.11 1.33 117.14 1.31 117.14 0.07"/><polygon class="cls-2" points="123.08 0.03 126.04 0.01 126.04 1.36 123.08 1.35 123.08 0.03"/><polygon class="cls-2" points="129.01 0 131.97 0.01 131.97 1.37 129.01 1.38 129.01 0"/><polygon class="cls-2" points="134.94 0.01 137.9 0.02 137.9 1.36 134.94 1.37 134.94 0.01"/><polygon class="cls-2" points="140.87 0.03 143.83 0.03 143.83 1.35 140.87 1.35 140.87 0.03"/><polygon class="cls-2" points="146.8 0.04 149.76 0.07 149.76 1.31 146.8 1.34 146.8 0.04"/><polygon class="cls-2" points="152.73 0.1 155.69 0.13 155.69 1.25 152.73 1.28 152.73 0.1"/><polygon class="cls-2" points="158.66 0.16 161.62 0.19 161.62 1.19 158.66 1.22 158.66 0.16"/><polygon class="cls-2" points="164.59 0.23 167.56 0.28 167.56 1.1 164.59 1.15 164.59 0.23"/><polygon class="cls-2" points="170.52 0.33 173.49 0.38 173.49 1 170.52 1.05 170.52 0.33"/><polygon class="cls-2" points="176.45 0.44 179.42 0.52 179.42 0.86 176.45 0.94 176.45 0.44"/><polygon class="cls-2" points="182.38 0.59 183.88 0.63 183.88 0.76 182.38 0.79 182.38 0.59"/></g></g></svg>