<svg xmlns="http://www.w3.org/2000/svg" viewBox="0 0 326.03 36.77"><defs><style>.cls-1{isolation:isolate;}.cls-2{mix-blend-mode:overlay;}.cls-3{fill:#fff;}</style></defs><g class="cls-1"><g id="Layer_2" data-name="Layer 2"><g id="Layer_1-2" data-name="Layer 1"><g class="cls-2"><path class="cls-3" d="M313.92.25A2.79,2.79,0,0,1,316.71,3V5A5.25,5.25,0,0,0,322,10.27h1a2.79,2.79,0,0,1,2.79,2.79V23.71A2.8,2.8,0,0,1,323,26.5h-1a5.25,5.25,0,0,0-5.25,5.25v2a2.79,2.79,0,0,1-2.79,2.79H12.1a2.79,2.79,0,0,1-2.78-2.79v-2A5.26,5.26,0,0,0,4.07,26.5H3A2.8,2.8,0,0,1,.25,23.71V13.06A2.79,2.79,0,0,1,3,10.27h1A5.26,5.26,0,0,0,9.32,5V3A2.79,2.79,0,0,1,12.1.25H313.92m0-.25H12.1a3,3,0,0,0-3,3V5a5,5,0,0,1-5,5H3a3,3,0,0,0-3,3V23.71a3,3,0,0,0,3,3h1a5,5,0,0,1,5,5v2a3,3,0,0,0,3,3H313.92a3,3,0,0,0,3-3v-2a5,5,0,0,1,5-5h1a3.05,3.05,0,0,0,3-3V13.06a3.05,3.05,0,0,0-3-3h-1a5,5,0,0,1-5-5V3a3,3,0,0,0-3-3Z"/></g></g></g></g></svg>