<svg xmlns="http://www.w3.org/2000/svg" xmlns:xlink="http://www.w3.org/1999/xlink" viewBox="0 0 326.03 36.77"><defs><style>.cls-1{isolation:isolate;}.cls-2{mix-blend-mode:overlay;fill:url(#linear-gradient);}</style><linearGradient id="linear-gradient" x1="163.01" x2="163.01" y2="36.77" gradientUnits="userSpaceOnUse"><stop offset="0" stop-color="#fff"/><stop offset="0.57" stop-color="#bfbfbf" stop-opacity="0"/></linearGradient></defs><g class="cls-1"><g id="Layer_2" data-name="Layer 2"><g id="Layer_1-2" data-name="Layer 1"><path class="cls-2" d="M313.92,0a3,3,0,0,1,3,3V5a5,5,0,0,0,5,5h1a3.05,3.05,0,0,1,3,3V23.71a3.05,3.05,0,0,1-3,3h-1a5,5,0,0,0-5,5v2a3,3,0,0,1-3,3H12.1a3,3,0,0,1-3-3v-2a5,5,0,0,0-5-5H3a3,3,0,0,1-3-3V13.06a3,3,0,0,1,3-3h1a5,5,0,0,0,5-5V3a3,3,0,0,1,3-3H313.92"/></g></g></g></svg>