<svg xmlns="http://www.w3.org/2000/svg" xmlns:xlink="http://www.w3.org/1999/xlink" viewBox="0 0 67.17 50.25"><defs><style>.cls-1{isolation:isolate;}.cls-2{fill:url(#radial-gradient);}.cls-3{fill:#6279bd;}.cls-4{fill:url(#radial-gradient-2);}.cls-5{fill:url(#radial-gradient-3);}.cls-6{fill:#030202;opacity:0.25;}.cls-10,.cls-11,.cls-12,.cls-13,.cls-6,.cls-7,.cls-8,.cls-9{mix-blend-mode:overlay;}.cls-7{fill:url(#linear-gradient);}.cls-8{fill:url(#linear-gradient-2);}.cls-9{fill:url(#linear-gradient-3);}.cls-10{fill:url(#linear-gradient-4);}.cls-11{fill:url(#linear-gradient-5);}.cls-12{fill:url(#linear-gradient-6);}.cls-13{fill:url(#linear-gradient-7);}</style><radialGradient id="radial-gradient" cx="-876.41" cy="-960.17" r="35.93" gradientTransform="matrix(0.14, -0.99, -0.99, -0.14, -801.03, -960.27)" gradientUnits="userSpaceOnUse"><stop offset="0" stop-color="#eff7fe"/><stop offset="1" stop-color="#b5c5eb"/></radialGradient><radialGradient id="radial-gradient-2" cx="39.62" cy="32.01" r="43.34" gradientUnits="userSpaceOnUse"><stop offset="0.22" stop-color="#e2f0ff"/><stop offset="0.69" stop-color="#c7e8f6"/><stop offset="1" stop-color="#bae4f2"/></radialGradient><radialGradient id="radial-gradient-3" cx="24.62" cy="33.99" r="37.66" gradientUnits="userSpaceOnUse"><stop offset="0" stop-color="#e2f0ff"/><stop offset="0.6" stop-color="#c7e8f6"/><stop offset="1" stop-color="#bae4f2"/></radialGradient><linearGradient id="linear-gradient" x1="-861.81" y1="-992.88" x2="-869.53" y2="-972.35" gradientTransform="matrix(0.14, -0.99, -0.99, -0.14, -801.03, -960.27)" gradientUnits="userSpaceOnUse"><stop offset="0" stop-color="#fff"/><stop offset="1" stop-color="#bfbfbf" stop-opacity="0"/></linearGradient><linearGradient id="linear-gradient-2" x1="-869.57" y1="-955.62" x2="-840.24" y2="-969.79" xlink:href="#linear-gradient"/><linearGradient id="linear-gradient-3" x1="-749.26" y1="-981.51" x2="-746.41" y2="-959.09" gradientTransform="matrix(0.67, -0.19, -0.13, -0.98, 396.51, -1053.87)" xlink:href="#linear-gradient"/><linearGradient id="linear-gradient-4" x1="-879.21" y1="-959.69" x2="-876.36" y2="-937.26" gradientTransform="matrix(0.98, -0.19, -0.19, -0.98, 704.47, -1058.56)" xlink:href="#linear-gradient"/><linearGradient id="linear-gradient-5" x1="-450.32" y1="-958.61" x2="-447.47" y2="-936.19" gradientTransform="matrix(0.67, -0.19, -0.13, -0.98, 202.58, -981.95)" xlink:href="#linear-gradient"/><linearGradient id="linear-gradient-6" x1="-670" y1="-919.34" x2="-667.15" y2="-896.92" gradientTransform="matrix(0.98, -0.19, -0.19, -0.98, 511.16, -985.63)" xlink:href="#linear-gradient"/><linearGradient id="linear-gradient-7" x1="-860.01" y1="-988.33" x2="-867.22" y2="-980.39" xlink:href="#linear-gradient"/></defs><g class="cls-1"><g id="Layer_2" data-name="Layer 2"><g id="Layer_1-2" data-name="Layer 1"><path class="cls-2" d="M8.75,1.84s5.32,4.5,16.19,16.5S50.76,26,50.76,26s.19,2.47-3.29,3.28c0,0,9.09-1,12.92-7.17,0,0-.35,5-4.37,7.5,0,0,6.14-3.42,10.92-.76,0,0-3.24.57-10.25,8.36s-18.9,10.72-25.4,10.16c0,0,1.27,1.1,6,2.07,0,0-13.36,1.66-23.59-5.18C.22,35.23-.62,17.19,1,9.86S.9.21.9.21A13,13,0,0,1,8.75,1.84Z"/><path class="cls-3" d="M8.79,1.79C12,4.61,15,7.66,18.06,10.71q2.27,2.28,4.49,4.6l2.21,2.34c.74.78,1.53,1.47,2.28,2.21s1.65,1.31,2.49,1.94l1.35.82.67.4c.23.13.47.23.71.35l1.41.68c.48.2,1,.37,1.47.56l.74.27.75.21c.51.13,1,.28,1.52.4a29.74,29.74,0,0,0,6.24.61,26.56,26.56,0,0,0,6.2-.73h.06a.57.57,0,0,1,.69.41.59.59,0,0,1,0,.13A3.24,3.24,0,0,1,51,27.42a3.85,3.85,0,0,1-.9,1.17,4.86,4.86,0,0,1-1.21.77,6.83,6.83,0,0,1-1.3.43l-.19-1.12A23.3,23.3,0,0,0,51,27.92a22.38,22.38,0,0,0,3.47-1.33,16.7,16.7,0,0,0,3.13-2,13.32,13.32,0,0,0,2.46-2.73l0,0a.34.34,0,0,1,.48-.09.37.37,0,0,1,.15.33,11.63,11.63,0,0,1-1.45,4.36,9.21,9.21,0,0,1-1.35,1.86,9,9,0,0,1-1.79,1.47l-.26-.44a16.73,16.73,0,0,1,2.68-1.09,16,16,0,0,1,2.83-.6,12.15,12.15,0,0,1,2.89,0,9.05,9.05,0,0,1,2.76.91.22.22,0,0,1,.1.3A.19.19,0,0,1,67,29h0a9,9,0,0,0-2.23,1.12,23.36,23.36,0,0,0-2.06,1.53,41.88,41.88,0,0,0-3.77,3.53c-1.19,1.24-2.29,2.57-3.56,3.79a29.38,29.38,0,0,1-4.13,3.25,32.77,32.77,0,0,1-4.61,2.53,34.74,34.74,0,0,1-4.93,1.83,36.07,36.07,0,0,1-5.15,1.12,24.73,24.73,0,0,1-5.31.24l.47-1.12a6.45,6.45,0,0,0,1.24.64c.46.18,1,.36,1.44.51a30.43,30.43,0,0,0,3,.74h0a.66.66,0,0,1,.52.78.67.67,0,0,1-.59.53,43,43,0,0,1-9.28-.11,35.74,35.74,0,0,1-9-2.17A28.83,28.83,0,0,1,11,43.08,29.75,29.75,0,0,1,4.93,36a32.81,32.81,0,0,1-3.57-8.57A39.19,39.19,0,0,1,0,18.29,34.31,34.31,0,0,1,.85,9.14a26.24,26.24,0,0,0,.62-4.48A12.18,12.18,0,0,0,1.39,2.4,5.83,5.83,0,0,0,.79.28h0a.13.13,0,0,1,0-.18h0A12,12,0,0,1,5,.32,14.67,14.67,0,0,1,8.79,1.79Zm-.08.11A14.9,14.9,0,0,0,4.93.52a11.78,11.78,0,0,0-4-.18L1,.13a9.53,9.53,0,0,1,.82,4.54,27,27,0,0,1-.46,4.57,32.81,32.81,0,0,0-.47,9,37.77,37.77,0,0,0,5.23,17A28.61,28.61,0,0,0,11.9,42a27.53,27.53,0,0,0,7.67,4.42,37.25,37.25,0,0,0,8.67,2.12,41.9,41.9,0,0,0,9,.21l0,1.31A31.64,31.64,0,0,1,34,49.23c-.52-.17-1-.35-1.55-.57a7.67,7.67,0,0,1-1.57-.85.63.63,0,0,1-.13-.87.62.62,0,0,1,.55-.25h.05a29.91,29.91,0,0,0,10.05-1.14,35.92,35.92,0,0,0,9.39-4,28.64,28.64,0,0,0,4.1-3.07c1.25-1.14,2.4-2.45,3.64-3.68a49.44,49.44,0,0,1,3.86-3.51,21.73,21.73,0,0,1,2.12-1.55,9.05,9.05,0,0,1,2.4-1.16l-.07.42a8.26,8.26,0,0,0-2.6-.89,10.78,10.78,0,0,0-2.78,0,16.19,16.19,0,0,0-5.31,1.7.26.26,0,0,1-.26-.44h0a8.52,8.52,0,0,0,2.91-3.17,10.47,10.47,0,0,0,.83-2A10.61,10.61,0,0,0,60,22l.65.21a13.42,13.42,0,0,1-2.54,3,16.85,16.85,0,0,1-3.23,2.19,24,24,0,0,1-3.59,1.49,23.88,23.88,0,0,1-3.8.89.57.57,0,0,1-.65-.48.56.56,0,0,1,.42-.63h0a9.14,9.14,0,0,0,1.08-.37,4.07,4.07,0,0,0,.91-.59,2.82,2.82,0,0,0,.62-.81,2.41,2.41,0,0,0,.22-.92l.76.53a27.73,27.73,0,0,1-13,.1,24.71,24.71,0,0,1-11.4-6.16c-.75-.79-1.55-1.55-2.24-2.36l-2.13-2.4Q20,13.3,17.82,10.94C14.89,7.83,11.88,4.75,8.71,1.9Z"/><path class="cls-4" d="M.89.21S2.56,2.53,1,9.86c-.06.28-.12.57-.17.88C-.54,18.54.73,35.58,13.68,44.21c8.78,5.87,19.87,5.48,22.83,5.25l.76-.07c-4.71-1-6-2.06-6-2.06,4.17.34,10.56-.73,16.46-3.6a31.21,31.21,0,0,0,6.8-4.47,26.51,26.51,0,0,0,2.14-2.1C61.9,31.38,65,29.57,66.29,29a4.23,4.23,0,0,1,.62-.21,0,0,0,0,1,0,0c-4.43-2.46-10,.29-10.84.71,3.94-2.52,4.28-7.45,4.28-7.45-3.71,6-12.36,7.1-12.9,7.17C51,28.4,50.76,26,50.76,26a26.1,26.1,0,0,1-7.08.78,26,26,0,0,1-12.24-3.19,25.06,25.06,0,0,1-6.5-5.2C14.07,6.34,8.75,1.85,8.75,1.85A13,13,0,0,0,.89.21Z"/><path class="cls-5" d="M47.49,29.23C51,28.4,50.76,26,50.76,26a27.3,27.3,0,0,1-19.32-2.41,12.16,12.16,0,0,0,3.66,3.87c6.2,4.41,8.91,4.78,6,5.31S31.83,31,31.83,31s.24,1.52,3.84,3.31A43.1,43.1,0,0,0,42.4,37s-6,1.62-4.68,2.75,11.34-.58,6.41,1.44a31.86,31.86,0,0,1-7.68,2.2c1,.06,4.76.7,4.76.7s-1.5.88-7.56,1.41-9.14-1.28-9.14-1.28.28,1.47,3.65,3.17c2.37,1.21,6.26,1.82,8.35,2.07l.76-.07c-4.71-1-6-2.06-6-2.06,6.5.55,18.39-2.37,25.4-10.17S67,28.8,67,28.8c-4.67-2.59-10.62.59-10.92.76,4-2.5,4.36-7.5,4.36-7.5C56.68,28.07,48,29.16,47.49,29.23Z"/><path class="cls-6" d="M.89.21S2.56,2.53,1,9.86.22,35.23,13.68,44.21c8.78,5.87,19.87,5.48,22.83,5.25l.76-.07c-4.71-1-6-2.06-6-2.06,5.88.49,16.17-1.85,23.26-8.07A24.72,24.72,0,0,1,47.94,42c-8.6,2.22-15.31,1.25-15.71,1.09s3.57-.55,3.51-1.58-3.83-1.85-3.83-1.85,3.17,0,4-1-3.15-.37-9.16-2.15l-.43-.13c-5.86-1.81-7.69-3.39-7.89-3.58A21.86,21.86,0,0,0,25,40l.1.07c4.43,2.89,5.69,3.07,5.69,3.07a33.54,33.54,0,0,0-3.61,0c-1.13.1.91,2.2,2.48,3.44,1.1.86-1.46,1.3-6.38-.52A44.3,44.3,0,0,1,15.7,42.2C6.39,36.49,6.07,30.41,6.06,30c.23.31,3.32,4.36,6,5.79s-.17-2.49-1.28-6.1-.29-5.5-.29-5.5a38.86,38.86,0,0,0,9.09,5.68c5.74,2.65,9,1.59,9,1.59s-6.83-2.12-9.08-6.26-1.76-8.06-1.31-8S20,21.11,28,25.75a26.56,26.56,0,0,0,6.59,2.72h0a26.38,26.38,0,0,0,9.28.84s-1,.92-3.54,1.05a26.72,26.72,0,0,1-3.43,0s.4,2.11,7,2A21.55,21.55,0,0,0,55.35,28.6L53.8,31.08a26.61,26.61,0,0,1,9.68-2.17c1.1,0,2,.05,2.81.11A3.78,3.78,0,0,1,67,28.8c-4.43-2.46-10,.29-10.84.71,3.94-2.52,4.28-7.45,4.28-7.45-3.71,6-12.36,7.1-12.9,7.17C51,28.4,50.76,26,50.76,26a27.3,27.3,0,0,1-19.32-2.41,25.06,25.06,0,0,1-6.5-5.2C14.07,6.34,8.75,1.85,8.75,1.85A13,13,0,0,0,.89.21Z"/><path class="cls-7" d="M47.49,29.23C51,28.4,50.76,26,50.76,26a26.1,26.1,0,0,1-7.08.78,21.19,21.19,0,0,0-.16,7.45,21.67,21.67,0,0,0,4.23,9.55,31.21,31.21,0,0,0,6.8-4.47,26.51,26.51,0,0,0,2.14-2.1C61.9,31.38,65,29.57,66.29,29A3.78,3.78,0,0,1,67,28.8c-4.43-2.46-10,.29-10.84.71,3.94-2.52,4.28-7.45,4.28-7.45C56.68,28.07,48,29.16,47.49,29.23Z"/><path class="cls-6" d="M17.78,16.09c-1,0-1.24,2.55,0,6.47a15.17,15.17,0,0,0,7.54,8.55s-3.13-.47-8.94-3.36S10.2,22.3,10.2,22.3s-1.35,1.19-.74,5.29,3.62,7.61,2.61,7.65S5.38,28.78,5.2,28.58c0,.17-.73,5.66,6.1,11s12,6.4,12,6.4A44.3,44.3,0,0,1,15.7,42.2C6.39,36.49,6.07,30.41,6.06,30c.23.31,3.32,4.36,6,5.79s-.17-2.49-1.28-6.1-.29-5.5-.29-5.5a38.86,38.86,0,0,0,9.09,5.68c5.74,2.65,9,1.59,9,1.59s-6.83-2.12-9.08-6.26-1.76-8.06-1.31-8S20,21.11,28,25.75a26.56,26.56,0,0,0,6.59,2.72,42.87,42.87,0,0,1-8.2-4.4C20.57,20.2,18.77,16.13,17.78,16.09Z"/><path class="cls-8" d="M.8,10.74C-.54,18.54.73,35.58,13.68,44.21c8.78,5.87,19.87,5.48,22.83,5.25l.76-.07c-4.71-1-6-2.06-6-2.06,4.17.34,10.56-.73,16.46-3.6a31.21,31.21,0,0,0,6.8-4.47,26.51,26.51,0,0,0,2.14-2.1C61.9,31.38,65,29.57,66.29,29a4.23,4.23,0,0,1,.62-.21c-.46.06-4.78.91-9.93,6.68-5.45,6.1-9,7.63-15.73,9.74a32.68,32.68,0,0,1-11.86,1.59,4.56,4.56,0,0,0,2.33,1.8c1.71.65-7,.55-16.15-3.73S2.26,28.24,1.33,21.86A73.78,73.78,0,0,1,.8,10.74Z"/><ellipse class="cls-9" cx="18.01" cy="45.34" rx="1.29" ry="3.22" transform="matrix(0.32, -0.95, 0.95, 0.32, -30.71, 47.8)"/><ellipse class="cls-10" cx="20.35" cy="41.67" rx="0.93" ry="1.54" transform="translate(-25.66 47.52) rotate(-71.22)"/><ellipse class="cls-11" cx="22.38" cy="38.71" rx="1.29" ry="3.22" transform="translate(-22.33 38.23) rotate(-59.35)"/><ellipse class="cls-12" cx="24.97" cy="35.76" rx="0.93" ry="1.54" transform="translate(-18.52 39.01) rotate(-59.35)"/><path class="cls-13" d="M45.48,42s4.45.1,8.79-4.79,6.64-6.36,6.64-6.36a29.48,29.48,0,0,0-4.75.62,14,14,0,0,0-3.36,1.26c-.16.1.58-1.33.32-1.61s-3.18,1.38-5.88,1.79a17.94,17.94,0,0,1-4.94.18"/></g></g></g></svg>