<svg xmlns="http://www.w3.org/2000/svg" xmlns:xlink="http://www.w3.org/1999/xlink" viewBox="0 0 76.86 43.81"><defs><style>.cls-1{isolation:isolate;}.cls-2{fill:url(#radial-gradient);}.cls-3{fill:#6279bd;}.cls-4{fill:url(#radial-gradient-2);}.cls-5{fill:url(#linear-gradient);}.cls-6{fill:#cec7d7;}.cls-14,.cls-7{fill:#211004;}.cls-7{opacity:0.57;}.cls-14,.cls-15,.cls-16,.cls-17,.cls-24,.cls-25,.cls-26,.cls-7{mix-blend-mode:overlay;}.cls-8{fill:url(#radial-gradient-3);}.cls-9{fill:#989db5;}.cls-10{fill:#d4d2dc;opacity:0.6;mix-blend-mode:multiply;}.cls-11{fill:url(#radial-gradient-4);}.cls-12{fill:url(#radial-gradient-5);}.cls-13{fill:url(#linear-gradient-2);}.cls-14{opacity:0.22;}.cls-15{fill:url(#linear-gradient-3);}.cls-16{fill:url(#linear-gradient-4);}.cls-17{fill:url(#linear-gradient-5);}.cls-18{fill:url(#radial-gradient-6);}.cls-19{fill:url(#radial-gradient-7);}.cls-20{fill:url(#linear-gradient-6);}.cls-21{fill:url(#radial-gradient-8);}.cls-22{fill:url(#radial-gradient-9);}.cls-23{fill:url(#linear-gradient-7);}.cls-24{fill:url(#linear-gradient-8);}.cls-25{fill:url(#linear-gradient-9);}.cls-26{fill:url(#linear-gradient-10);}</style><radialGradient id="radial-gradient" cx="-616.8" cy="19.32" r="45.78" gradientTransform="translate(624.85)" gradientUnits="userSpaceOnUse"><stop offset="0" stop-color="#eff7fe"/><stop offset="1" stop-color="#b5c5eb"/></radialGradient><radialGradient id="radial-gradient-2" cx="-616.8" cy="19.32" r="45.78" gradientTransform="translate(624.85)" gradientUnits="userSpaceOnUse"><stop offset="0" stop-color="#e2f0ff"/><stop offset="1" stop-color="#d9f1ff"/></radialGradient><linearGradient id="linear-gradient" x1="-612.79" y1="5.69" x2="-612.64" y2="20.97" gradientTransform="translate(624.85)" gradientUnits="userSpaceOnUse"><stop offset="0.07" stop-color="#6d6f73"/><stop offset="0.17" stop-color="#6d6f73" stop-opacity="0.94"/><stop offset="0.31" stop-color="#6d6f73" stop-opacity="0.77"/><stop offset="0.48" stop-color="#6d6f73" stop-opacity="0.5"/><stop offset="0.67" stop-color="#6d6f73" stop-opacity="0.13"/><stop offset="0.73" stop-color="#6d6f73" stop-opacity="0"/></linearGradient><radialGradient id="radial-gradient-3" cx="-615.71" cy="31.76" r="9.14" gradientTransform="translate(624.85)" gradientUnits="userSpaceOnUse"><stop offset="0" stop-color="#f6fdfa"/><stop offset="1" stop-color="#f9feff"/></radialGradient><radialGradient id="radial-gradient-4" cx="-607.34" cy="21.37" r="18.98" xlink:href="#radial-gradient"/><radialGradient id="radial-gradient-5" cx="-607.34" cy="21.37" r="18.98" xlink:href="#radial-gradient-2"/><linearGradient id="linear-gradient-2" x1="-605.44" y1="5.62" x2="-605.29" y2="20.9" xlink:href="#linear-gradient"/><linearGradient id="linear-gradient-3" x1="-602.58" y1="8.57" x2="-600.28" y2="31.19" gradientTransform="translate(624.85)" gradientUnits="userSpaceOnUse"><stop offset="0" stop-color="#fff"/><stop offset="1" stop-color="#bfbfbf" stop-opacity="0"/></linearGradient><linearGradient id="linear-gradient-4" x1="-611.05" y1="6.82" x2="-608.76" y2="29.44" gradientTransform="translate(624.95 25.81) rotate(2.42)" xlink:href="#linear-gradient-3"/><linearGradient id="linear-gradient-5" x1="-608.77" y1="5.49" x2="-606.47" y2="28.1" gradientTransform="translate(624.97 25.71) rotate(2.42)" xlink:href="#linear-gradient-3"/><radialGradient id="radial-gradient-6" cx="-1037.35" cy="19.32" r="45.78" gradientTransform="matrix(-1, 0, 0, 1, -968.54, 0)" xlink:href="#radial-gradient"/><radialGradient id="radial-gradient-7" cx="63.77" cy="9.49" r="24.95" gradientTransform="matrix(1, 0, 0, 1, 0, 0)" xlink:href="#radial-gradient-2"/><linearGradient id="linear-gradient-6" x1="-1033.34" y1="5.69" x2="-1033.19" y2="20.97" gradientTransform="matrix(-1, 0, 0, 1, -968.54, 0)" xlink:href="#linear-gradient"/><radialGradient id="radial-gradient-8" cx="-1036.25" cy="31.76" r="9.14" gradientTransform="matrix(-1, 0, 0, 1, -968.54, 0)" xlink:href="#radial-gradient-3"/><radialGradient id="radial-gradient-9" cx="-1027.89" cy="21.37" r="18.98" gradientTransform="matrix(-1, 0, 0, 1, -968.54, 0)" xlink:href="#radial-gradient"/><linearGradient id="linear-gradient-7" x1="-1025.98" y1="5.62" x2="-1025.84" y2="20.9" gradientTransform="matrix(-1, 0, 0, 1, -968.54, 0)" xlink:href="#linear-gradient"/><linearGradient id="linear-gradient-8" x1="-1023.12" y1="8.57" x2="-1020.83" y2="31.19" gradientTransform="matrix(-1, 0, 0, 1, -968.54, 0)" xlink:href="#linear-gradient-3"/><linearGradient id="linear-gradient-9" x1="-1031.6" y1="6.82" x2="-1029.31" y2="29.44" gradientTransform="matrix(-0.04, -1, -1, 0.04, 33.8, -1015.29)" xlink:href="#linear-gradient-3"/><linearGradient id="linear-gradient-10" x1="-1029.31" y1="5.49" x2="-1027.02" y2="28.1" gradientTransform="matrix(-0.04, -1, -1, 0.04, 31.89, -1012.38)" xlink:href="#linear-gradient-3"/></defs><g class="cls-1"><g id="Layer_2" data-name="Layer 2"><g id="Layer_1-2" data-name="Layer 1"><path class="cls-2" d="M22.08,40.67S4.17,43.32,4,43.32s-2.52-5.66-.37-16.74l.21-1A61.45,61.45,0,0,1,6.08,18.2,122.72,122.72,0,0,1,11.74,5.45c1.52-3,2.62-4.91,2.62-4.91l3.95,20.55Z"/><path class="cls-3" d="M22.13,40.71c-5,.91-10.34,1.93-15.7,2.72l-2,.31-.25,0L4,43.8H4l-.09,0a.7.7,0,0,1-.36-.25A4.52,4.52,0,0,1,3.29,43,10.32,10.32,0,0,1,3,42a21.18,21.18,0,0,1-.63-4,35.08,35.08,0,0,1,.41-8A67.85,67.85,0,0,1,7.21,14.72c1-2.47,2-4.91,3.12-7.32S12.7,2.65,13.91.28A.51.51,0,0,1,14.6.06a.5.5,0,0,1,.27.35v0l2,10,1.89,10c.59,3.4,1.21,6.84,1.75,10.22ZM22,40.64,19.77,30.56c-.74-3.31-1.41-6.56-2.1-9.85l-2-10L13.85.64l1,.16a154.31,154.31,0,0,0-7.2,14.09,48.9,48.9,0,0,0-4.2,15.18,44.55,44.55,0,0,0-.1,7.83A25.5,25.5,0,0,0,4,41.73a6.69,6.69,0,0,0,.27.9c0,.13.12.31.13.35a.35.35,0,0,0-.28-.16h.09l.24,0,1.92-.26C11.43,41.77,16.6,41.26,22,40.64Z"/><path class="cls-4" d="M22.08,40.67S4.17,43.32,4,43.32s-2.52-5.66-.37-16.74l.21-1A61.45,61.45,0,0,1,6.08,18.2,122.72,122.72,0,0,1,11.74,5.45c1.52-3,2.62-4.91,2.62-4.91l3.95,20.55Z"/><path class="cls-5" d="M18.31,21.09,15.74,21A18.84,18.84,0,0,1,6.08,18.2,134.11,134.11,0,0,1,14.36.54Z"/><path class="cls-6" d="M14.24,5.15S9.47,12,6.42,24.05,6,42.47,6,42.47H16L13.94,8.8"/><path class="cls-7" d="M22.08,40.67S4.17,43.32,4,43.32s-2.52-5.66-.37-16.74l.21-1c.75,2.09,2,1.13,3.09.05C8.56,24,9.78,24.57,9.78,24.57s-.4-2.82.24-3.15,1.54.5,1.54.5c-.91-4.61.66-13.71,1.21-18.45A18.89,18.89,0,0,1,14.36.54l3.95,20.55Z"/><path class="cls-8" d="M3.34,41.09A.2.2,0,0,1,3.15,41a4.31,4.31,0,0,1,.08-2.72,1.82,1.82,0,0,0-.63,1,.2.2,0,0,1-.2.17h0a.21.21,0,0,1-.19-.19,5.17,5.17,0,0,1,.51-2.78,1.15,1.15,0,0,1-.26,0,4.08,4.08,0,0,1-2.18-1,.19.19,0,0,1-.06-.22.2.2,0,0,1,.19-.13H.58c.44,0,1.55-.22,2.25-2.34A4.15,4.15,0,0,1,5.13,30a5.21,5.21,0,0,1-2.2-2,.18.18,0,0,1,0-.23.18.18,0,0,1,.15-.07h.07a4.72,4.72,0,0,0,1.64.3,2.74,2.74,0,0,0,2.28-1,3.07,3.07,0,0,1,2.54-1.25,4.37,4.37,0,0,1,1,.12,4,4,0,0,1-.06-3.31.21.21,0,0,1,.17-.11h0a.24.24,0,0,1,.17.09,6.68,6.68,0,0,0,4.3,2.75.18.18,0,0,1,.15.12c.16.33,4,8.27,2.33,12.17a3.23,3.23,0,0,1-2,1.87A40.72,40.72,0,0,1,3.83,41.09Z"/><path class="cls-9" d="M10.73,22.62a6.89,6.89,0,0,0,4.44,2.84s5.75,11.94.48,13.77A40.3,40.3,0,0,1,3.83,40.89H3.34a4.52,4.52,0,0,1,.3-3.13A2.1,2.1,0,0,0,2.4,39.2a4.84,4.84,0,0,1,.85-3.27,1.06,1.06,0,0,1-.8.33A4,4,0,0,1,.4,35.31H.58c.46,0,1.7-.22,2.44-2.48C3.94,30,6,30,6,30c-1.72,0-2.93-2.1-2.93-2.1a5.09,5.09,0,0,0,1.71.31,2.94,2.94,0,0,0,2.44-1.11,2.88,2.88,0,0,1,2.38-1.17,3.87,3.87,0,0,1,1.37.25,3.91,3.91,0,0,1-.27-3.55m0-.4h0a.39.39,0,0,0-.33.22,4.28,4.28,0,0,0-.09,3.13,4.19,4.19,0,0,0-.65-.05,3.27,3.27,0,0,0-2.7,1.33,2.53,2.53,0,0,1-2.12.95,4.89,4.89,0,0,1-1.56-.28.4.4,0,0,0-.15,0,.39.39,0,0,0-.3.14.39.39,0,0,0,0,.46A5.75,5.75,0,0,0,4.67,30a4.51,4.51,0,0,0-2,2.72C2,34.71,1,34.92.58,34.92H.41a.4.4,0,0,0-.38.26.4.4,0,0,0,.11.45,4.45,4.45,0,0,0,2.25,1A5.33,5.33,0,0,0,2,39.23a.41.41,0,0,0,.38.37h0a.4.4,0,0,0,.39-.33h0A3.85,3.85,0,0,0,3,41a.4.4,0,0,0,.37.27h.5a41,41,0,0,0,12-1.69,3.4,3.4,0,0,0,2.08-2c1.66-4-2.16-12-2.33-12.34a.38.38,0,0,0-.3-.22,6.62,6.62,0,0,1-4.17-2.67.4.4,0,0,0-.33-.18Z"/><path class="cls-10" d="M15.65,39.23C10.4,41.06,3.34,40.89,3.34,40.89a4.52,4.52,0,0,1,.3-3.13A2.1,2.1,0,0,0,2.4,39.2a4.84,4.84,0,0,1,.85-3.27c-1,1-2.85-.62-2.85-.62h0a7.09,7.09,0,0,0,4.65-.4A7.82,7.82,0,0,0,4,35.67a3.4,3.4,0,0,0-1,1.94,2.66,2.66,0,0,1,2.57,0c1.27.8,4.58.19,3-.84a4.78,4.78,0,0,0-3.77-.21,5.69,5.69,0,0,1,4-1.51c2.69-.07,3.71-1.88,1.88-2.52A4.69,4.69,0,0,0,7,32.87a4.43,4.43,0,0,1,3.33-1.93c2.16-.12,2.39-.92,1-1.92a5.5,5.5,0,0,0-3.2-.85,5.41,5.41,0,0,1,3.54-.35,3.91,3.91,0,0,0,3.25-.52,4.67,4.67,0,0,1-2.49-1.44,6.9,6.9,0,0,1-1.67-3.24,6.89,6.89,0,0,0,4.44,2.84S20.92,37.4,15.65,39.23Z"/><path class="cls-11" d="M35.75,38.84l-4.87.29L16.23,40c-.17-.52-.33-1-.48-1.6-.21-.73-.4-1.49-.57-2.26a.45.45,0,0,0,0-.11.22.22,0,0,0,0-.08,81.61,81.61,0,0,1-1.68-15.13,152.37,152.37,0,0,1,.43-15.57c.24-2.89.47-4.68.47-4.68.91,2,2.81,5.53,5.12,9.75,1.9,3.43,4.08,7.3,6.21,11.05,4.79,8.42,9.33,16.25,10,17.36Z"/><path class="cls-3" d="M35.8,38.87l-4.92.51L26,39.79c-3.25.28-6.5.46-9.75.69a.5.5,0,0,1-.51-.35c-.2-.65-.42-1.29-.57-1.94l-.48-2,0-.11s0,0,0,0l0-.15a.23.23,0,0,0,0,.14l0-.11a59,59,0,0,1-1.14-8.86c-.18-3-.28-5.93-.28-8.9s0-5.93.09-8.89c.05-1.49.1-3,.2-4.45L13.89.48A.47.47,0,0,1,14.4.05a.5.5,0,0,1,.37.24l0,.05L20,10c1.82,3.17,3.57,6.38,5.36,9.57l5.29,9.59C32.38,32.36,34.1,35.5,35.8,38.87Zm-.1-.06c-2-3-3.88-6.17-5.77-9.27s-3.78-6.27-5.6-9.44S20.7,13.74,19,10.53l-5-9.79.9-.14L14.31,5c-.16,1.47-.29,2.94-.4,4.42-.23,2.94-.33,5.9-.32,8.86a84.22,84.22,0,0,0,.54,8.84,84,84,0,0,0,1.49,8.7l0-.11a.77.77,0,0,1,.06.3l0-.15a2,2,0,0,1,.05.26V36l.5,1.91c.17.64.38,1.26.55,1.9l-.51-.35c3.26-.14,6.51-.34,9.77-.44l4.88-.16Z"/><path class="cls-12" d="M35.75,38.84l-4.87.29L16.23,40c-.17-.52-.33-1-.48-1.6-.21-.73-.4-1.49-.57-2.26a.45.45,0,0,0,0-.11.22.22,0,0,0,0-.08,81.61,81.61,0,0,1-1.68-15.13,152.37,152.37,0,0,1,.43-15.57c.24-2.89.47-4.68.47-4.68.91,2,2.81,5.53,5.12,9.75,1.9,3.43,4.08,7.3,6.21,11.05,4.79,8.42,9.33,16.25,10,17.36Z"/><path class="cls-13" d="M25.69,21.34c-2.92,0-6.34-.22-10-.36-.8,0-1.57-.1-2.29-.19A145.06,145.06,0,0,1,14.36.54C16,4.1,21,13,25.69,21.34Z"/><path class="cls-14" d="M25.69,21.34C21,13,16,4.1,14.36.54c0,0-.23,1.79-.47,4.68.29,1.54,11.42,20.64,1.86,33.15.15.55.31,1.08.48,1.6l14.65-.84,4.87-.29S30.86,30.43,25.69,21.34Z"/><path class="cls-15" d="M14.48,21.34a96.66,96.66,0,0,0,.66,14.58,81.61,81.61,0,0,1-1.68-15.13,152.37,152.37,0,0,1,.43-15.57c.24-2.89.47-4.68.47-4.68.91,2,2.81,5.53,5.12,9.75,1.9,3.43,4.08,7.3,6.21,11.05,4.79,8.42,9.33,16.25,10,17.36a79.35,79.35,0,0,1-8.23-12C21.65,16.3,14.92,3.83,14.92,3.83S14.63,11.57,14.48,21.34Z"/><ellipse class="cls-16" cx="14.64" cy="15.18" rx="1.23" ry="2.29" transform="translate(-0.63 0.63) rotate(-2.42)"/><ellipse class="cls-17" cx="17.11" cy="15.64" rx="0.66" ry="1.08" transform="translate(-0.65 0.74) rotate(-2.42)"/><path class="cls-18" d="M54.77,40.67s17.91,2.65,18.08,2.65,2.52-5.66.37-16.74c-.07-.33-.14-.67-.2-1a59.78,59.78,0,0,0-2.25-7.37A122.72,122.72,0,0,0,65.11,5.45c-1.52-3-2.62-4.91-2.62-4.91l-4,20.55Z"/><path class="cls-3" d="M54.82,40.64c5.44.62,10.6,1.13,15.71,1.87l1.92.26.24,0h.09a.37.37,0,0,0-.28.16s.09-.22.14-.35a8.52,8.52,0,0,0,.26-.9,24.29,24.29,0,0,0,.63-3.83,43.6,43.6,0,0,0-.1-7.83,48.88,48.88,0,0,0-4.19-15.18A157,157,0,0,0,62,.8l1-.16-1.84,10-2,10c-.7,3.29-1.37,6.54-2.11,9.85Zm-.1.07,1.6-10c.55-3.38,1.16-6.82,1.76-10.22l1.88-10,2-10v0a.51.51,0,0,1,.61-.4.49.49,0,0,1,.35.27C64.15,2.65,65.43,5,66.52,7.4s2.16,4.85,3.12,7.32A67.87,67.87,0,0,1,74.11,30a35.65,35.65,0,0,1,.4,8,20.4,20.4,0,0,1-.63,4c-.09.33-.19.65-.31,1a3.6,3.6,0,0,1-.26.56.63.63,0,0,1-.36.25l-.09,0h0l-.13,0-.25,0-2-.31C65.06,42.64,59.76,41.62,54.72,40.71Z"/><path class="cls-19" d="M54.77,40.67s17.91,2.65,18.08,2.65,2.52-5.66.37-16.74c-.07-.33-.14-.67-.2-1a59.78,59.78,0,0,0-2.25-7.37A122.72,122.72,0,0,0,65.11,5.45c-1.52-3-2.62-4.91-2.62-4.91l-4,20.55Z"/><path class="cls-20" d="M58.54,21.09,61.11,21a18.88,18.88,0,0,0,9.67-2.78A134.91,134.91,0,0,0,62.49.54Z"/><path class="cls-6" d="M62.61,5.15s4.77,6.84,7.82,18.9.42,18.42.42,18.42h-10l2-33.67"/><path class="cls-7" d="M54.77,40.67s17.91,2.65,18.08,2.65,2.52-5.66.37-16.74c-.07-.33-.14-.67-.2-1-.76,2.09-2,1.13-3.09.05-1.64-1.66-2.86-1.05-2.86-1.05s.4-2.82-.24-3.15-1.53.5-1.53.5c.9-4.61-.67-13.71-1.22-18.45A18.89,18.89,0,0,0,62.49.54l-4,20.55Z"/><path class="cls-21" d="M73,41.09a40.76,40.76,0,0,1-11.89-1.67,3.19,3.19,0,0,1-2-1.87c-1.62-3.9,2.16-11.84,2.32-12.17a.2.2,0,0,1,.15-.12A6.76,6.76,0,0,0,66,22.51a.2.2,0,0,1,.16-.09h0a.21.21,0,0,1,.16.11,4,4,0,0,1,0,3.31,4.19,4.19,0,0,1,1-.12A3.1,3.1,0,0,1,69.77,27,2.71,2.71,0,0,0,72,28a4.72,4.72,0,0,0,1.64-.3h.07a.2.2,0,0,1,.16.07.21.21,0,0,1,0,.23,5.36,5.36,0,0,1-2.2,2A4.14,4.14,0,0,1,74,32.78c.7,2.12,1.81,2.34,2.25,2.34h.14a.24.24,0,0,1,.21.13.19.19,0,0,1,0,.22,4.17,4.17,0,0,1-2.18,1,1.24,1.24,0,0,1-.27,0,5.17,5.17,0,0,1,.51,2.78.21.21,0,0,1-.19.19h0a.21.21,0,0,1-.2-.17,1.76,1.76,0,0,0-.63-1A4.31,4.31,0,0,1,73.7,41a.19.19,0,0,1-.18.13Z"/><path class="cls-9" d="M66.12,22.62a3.88,3.88,0,0,1-.27,3.55,3.93,3.93,0,0,1,1.37-.25,2.9,2.9,0,0,1,2.39,1.17A2.92,2.92,0,0,0,72,28.2a5.09,5.09,0,0,0,1.71-.31S72.54,30,70.82,30c0,0,2.1,0,3,2.85.74,2.26,2,2.48,2.44,2.48h.19a4,4,0,0,1-2,.95,1.07,1.07,0,0,1-.81-.33,4.78,4.78,0,0,1,.85,3.27,2.1,2.1,0,0,0-1.24-1.44,4.52,4.52,0,0,1,.3,3.13H73A40.34,40.34,0,0,1,61.2,39.23c-5.27-1.83.48-13.77.48-13.77a6.89,6.89,0,0,0,4.44-2.84m0-.4a.4.4,0,0,0-.33.18,6.6,6.6,0,0,1-4.16,2.67.38.38,0,0,0-.31.22c-.16.34-4,8.35-2.33,12.34a3.42,3.42,0,0,0,2.08,2A41,41,0,0,0,73,41.3h.5a.4.4,0,0,0,.37-.27,3.85,3.85,0,0,0,.16-1.76h0a.4.4,0,0,0,.39.33h0a.41.41,0,0,0,.38-.37,5.33,5.33,0,0,0-.39-2.57,4.5,4.5,0,0,0,2.26-1,.42.42,0,0,0,.11-.45.41.41,0,0,0-.37-.26h-.19c-.4,0-1.4-.21-2.06-2.21a4.51,4.51,0,0,0-2-2.71,5.67,5.67,0,0,0,1.91-1.91.39.39,0,0,0,0-.46.41.41,0,0,0-.31-.14l-.15,0A4.74,4.74,0,0,1,72,27.8a2.53,2.53,0,0,1-2.12-1,3.28,3.28,0,0,0-2.7-1.32,4.4,4.4,0,0,0-.65.05,4.17,4.17,0,0,0-.09-3.13.39.39,0,0,0-.33-.22Z"/><path class="cls-10" d="M61.2,39.23c5.26,1.83,12.31,1.66,12.31,1.66a4.52,4.52,0,0,0-.3-3.13,2.1,2.1,0,0,1,1.24,1.44,4.78,4.78,0,0,0-.85-3.27c1,1,2.86-.62,2.86-.62h0a7.09,7.09,0,0,1-4.65-.4,7.62,7.62,0,0,1,1.12.76,3.43,3.43,0,0,1,1,1.94,2.64,2.64,0,0,0-2.56,0c-1.28.8-4.59.19-3-.84a4.78,4.78,0,0,1,3.77-.21,5.65,5.65,0,0,0-4-1.51c-2.7-.07-3.72-1.88-1.88-2.52a4.72,4.72,0,0,1,3.55.35,4.48,4.48,0,0,0-3.34-1.93c-2.16-.12-2.39-.92-1-1.92a5.52,5.52,0,0,1,3.2-.85,5.41,5.41,0,0,0-3.54-.35A3.88,3.88,0,0,1,62,27.3a4.66,4.66,0,0,0,2.48-1.44,6.9,6.9,0,0,0,1.67-3.24,6.89,6.89,0,0,1-4.44,2.84S55.93,37.4,61.2,39.23Z"/><path class="cls-22" d="M41.11,38.84l4.86.29L60.62,40c.17-.52.33-1,.48-1.6.21-.73.4-1.49.58-2.26a.43.43,0,0,1,0-.11.22.22,0,0,1,0-.08,79.94,79.94,0,0,0,1.68-15.13A146.79,146.79,0,0,0,63,5.22c-.24-2.89-.47-4.68-.47-4.68-.91,2-2.81,5.53-5.12,9.75-1.9,3.43-4.08,7.3-6.21,11.05-4.79,8.42-9.33,16.25-10,17.36A.87.87,0,0,0,41.11,38.84Z"/><path class="cls-3" d="M41.16,38.81l4.84.06,4.89.16c3.25.1,6.51.3,9.76.44l-.51.35c.18-.64.38-1.26.55-1.9L61.2,36l0,.1a2,2,0,0,1,0-.26l0,.15a.77.77,0,0,1,.06-.3l0,.11a79,79,0,0,0,1.49-8.7,81.61,81.61,0,0,0,.54-8.84c0-3-.09-5.92-.32-8.86-.1-1.48-.24-2.95-.4-4.42L62,.6l.9.14-5,9.79c-1.76,3.21-3.6,6.38-5.39,9.57s-3.72,6.3-5.6,9.44S43.11,35.84,41.16,38.81Zm-.1.06c1.69-3.37,3.41-6.51,5.16-9.75l5.3-9.59c1.78-3.19,3.53-6.4,5.35-9.57L62.06.34l0,0a.47.47,0,0,1,.64-.19A.45.45,0,0,1,63,.48l.36,4.45c.1,1.48.15,3,.2,4.45.08,3,.14,5.93.09,8.89s-.1,5.93-.27,8.9A59,59,0,0,1,62.19,36l0,.11a.23.23,0,0,0,0-.14l0,.15s0,0,0,0v.11l-.49,2c-.15.65-.37,1.29-.57,1.94a.51.51,0,0,1-.51.35c-3.25-.23-6.5-.41-9.75-.69L46,39.38Z"/><path class="cls-19" d="M41.11,38.84l4.86.29L60.62,40c.17-.52.33-1,.48-1.6.21-.73.4-1.49.58-2.26a.43.43,0,0,1,0-.11.22.22,0,0,1,0-.08,79.94,79.94,0,0,0,1.68-15.13A146.79,146.79,0,0,0,63,5.22c-.24-2.89-.47-4.68-.47-4.68-.91,2-2.81,5.53-5.12,9.75-1.9,3.43-4.08,7.3-6.21,11.05-4.79,8.42-9.33,16.25-10,17.36A.87.87,0,0,0,41.11,38.84Z"/><path class="cls-23" d="M51.17,21.34c2.92,0,6.33-.22,9.94-.36.8,0,1.57-.1,2.29-.19A145.06,145.06,0,0,0,62.49.54C60.86,4.1,55.9,13,51.17,21.34Z"/><path class="cls-14" d="M51.16,21.34C55.89,13,60.85,4.1,62.49.54c0,0,.23,1.79.47,4.68-.29,1.54-11.41,20.64-1.86,33.15-.15.55-.31,1.08-.48,1.6L46,39.13l-4.86-.29S46,30.43,51.16,21.34Z"/><path class="cls-24" d="M62.38,21.34a97.42,97.42,0,0,1-.67,14.58,79.94,79.94,0,0,0,1.68-15.13A146.79,146.79,0,0,0,63,5.22c-.24-2.89-.47-4.68-.47-4.68-.91,2-2.81,5.53-5.12,9.75-1.9,3.43-4.08,7.3-6.21,11.05-4.79,8.42-9.33,16.25-10,17.36a80.16,80.16,0,0,0,8.22-12C55.21,16.3,61.93,3.83,61.93,3.83S62.23,11.57,62.38,21.34Z"/><ellipse class="cls-25" cx="62.21" cy="15.18" rx="2.29" ry="1.23" transform="translate(44.41 76.69) rotate(-87.58)"/><ellipse class="cls-26" cx="59.74" cy="15.64" rx="1.08" ry="0.66" transform="translate(41.58 74.67) rotate(-87.58)"/></g></g></g></svg>