<svg xmlns="http://www.w3.org/2000/svg" xmlns:xlink="http://www.w3.org/1999/xlink" viewBox="0 0 49.03 48.89"><defs><style>.cls-1{isolation:isolate;}.cls-2{fill:url(#radial-gradient);}.cls-3{fill:#4697ad;}.cls-4{fill:#7d8080;}.cls-5{fill:#c5d9e8;}.cls-10,.cls-15,.cls-16,.cls-5{mix-blend-mode:multiply;}.cls-6{fill:#8e9cd6;}.cls-12,.cls-18,.cls-19,.cls-7{fill:#f2f8ff;}.cls-11,.cls-18,.cls-19,.cls-7{mix-blend-mode:overlay;}.cls-8{fill:url(#radial-gradient-2);}.cls-9{fill:#3c4259;}.cls-10{fill:#c0c8cf;}.cls-13{fill:url(#radial-gradient-3);}.cls-14{fill:url(#radial-gradient-4);}.cls-15,.cls-17{fill:#b3cfe3;}.cls-18{opacity:0.31;}.cls-19{opacity:0.62;}</style><radialGradient id="radial-gradient" cx="-6.07" cy="-67.56" r="28.57" gradientTransform="matrix(1, 0.1, -0.1, 1, 17.46, 99.68)" gradientUnits="userSpaceOnUse"><stop offset="0" stop-color="#f8fcff"/><stop offset="1" stop-color="#e9eef6"/></radialGradient><radialGradient id="radial-gradient-2" cx="21.45" cy="-103.67" r="8.74" gradientTransform="matrix(1, 0.1, -0.1, 1, 17.46, 99.68)" gradientUnits="userSpaceOnUse"><stop offset="0" stop-color="#a3a3a3"/><stop offset="0.62" stop-color="#797c81"/><stop offset="1" stop-color="#515357"/></radialGradient><radialGradient id="radial-gradient-3" cx="-225.13" cy="-629.35" r="0.87" gradientTransform="translate(-584.31 229.02) rotate(90)" xlink:href="#radial-gradient"/><radialGradient id="radial-gradient-4" cx="0.87" cy="-64.04" r="13.75" gradientTransform="matrix(1, 0.1, -0.1, 1, 17.46, 99.68)" gradientUnits="userSpaceOnUse"><stop offset="0" stop-color="#f8fcff"/><stop offset="1" stop-color="#d1dcf0"/></radialGradient></defs><g class="cls-1"><g id="Layer_2" data-name="Layer 2"><g id="Layer_1-2" data-name="Layer 1"><polygon class="cls-2" points="45.64 8.31 4.7 48.82 2.63 46.73 0.09 44.17 41.02 3.64 43.7 6.35 45.64 8.31"/><path class="cls-3" d="M45.66,8.31,35.51,18.46,25.3,28.62C18.45,35.39,11.54,42.08,4.75,48.87a.07.07,0,0,1-.1,0h0L0,44.23a.09.09,0,0,1,0-.13H0L20.45,23.79C27.25,17,34.12,10.32,41,3.59a.07.07,0,0,1,.1,0h0Zm0,0L41,3.69h.1C34.28,10.48,27.51,17.28,20.66,24L.15,44.23V44.1l4.6,4.68h-.1c6.86-6.72,13.6-13.53,20.4-20.26L35.3,18.42Z"/><polygon class="cls-4" points="22.41 22.93 23.17 25.14 25.63 26.17 24.27 23.93 22.41 22.93"/><polygon class="cls-4" points="24.16 21.27 24.92 23.49 27.38 24.51 26.02 22.28 24.16 21.27"/><polygon class="cls-4" points="27.83 18.2 28.6 20.41 30.79 21.56 29.96 19.35 27.83 18.2"/><polygon class="cls-4" points="26.27 19.77 26.68 22.04 28.77 22.83 28.38 20.82 26.27 19.77"/><polygon class="cls-4" points="30.2 16.98 30.58 19.06 32.71 20.03 31.93 17.97 30.2 16.98"/><polygon class="cls-4" points="38.71 8.7 39.09 10.79 41.22 11.76 40.44 9.69 38.71 8.7"/><polygon class="cls-4" points="40.36 7.15 40.74 9.24 42.87 10.21 42.09 8.15 40.36 7.15"/><polygon class="cls-4" points="31.78 15.29 32.16 17.37 34.28 18.34 33.5 16.28 31.78 15.29"/><polygon class="cls-4" points="33.45 13.63 33.83 15.71 35.95 16.68 35.17 14.62 33.45 13.63"/><polygon class="cls-4" points="35.44 12.1 35.82 14.19 37.95 15.16 37.17 13.09 35.44 12.1"/><polygon class="cls-4" points="37.23 10.35 37.61 12.44 39.74 13.4 38.96 11.34 37.23 10.35"/><polygon class="cls-4" points="18.96 26.4 19.75 28.37 22.21 29.39 20.85 27.16 18.96 26.4"/><polygon class="cls-4" points="20.64 24.79 21.47 26.66 23.88 27.79 22.52 25.55 20.64 24.79"/><polygon class="cls-5" points="43.7 6.35 2.63 46.73 0.29 44.37 0.09 44.17 41.02 3.64 41.34 3.98 43.7 6.35"/><polygon class="cls-6" points="19.2 30.68 6.69 42.88 19.02 30.5 19.2 30.68"/><polygon class="cls-6" points="17.67 29.32 11.05 35.95 17.49 29.15 17.67 29.32"/><polygon class="cls-7" points="41.34 3.98 0.29 44.37 0.09 44.17 41.02 3.64 41.34 3.98"/><path class="cls-8" d="M48.65,5.6,45.33,9.17,43.78,7.55l-1.43-.3-.3-1.43L40.08,4l1-1L43.43.56a1.31,1.31,0,0,1,1.85,0l2.84,2.75.49.48A1.3,1.3,0,0,1,48.65,5.6Z"/><path class="cls-9" d="M48.66,5.61c-1.11,1.19-2.13,2.46-3.23,3.66a.15.15,0,0,1-.2,0h0c-.52-.54-1-1.08-1.53-1.64l.06,0-1.43-.34a.09.09,0,0,1-.06-.06L42,5.83l0,0c-.65-.62-1.33-1.22-2-1.82a.08.08,0,0,1,0-.12h0l2.31-2.46c.41-.4.73-.81,1.22-1.22a1.47,1.47,0,0,1,1.77.12c.83.79,1.61,1.58,2.39,2.39A12.58,12.58,0,0,1,48.86,4,1.34,1.34,0,0,1,48.66,5.61Zm0,0a1.27,1.27,0,0,0,.14-1.53,12,12,0,0,0-1.21-1.15c-.84-.75-1.66-1.53-2.46-2.3A1.16,1.16,0,0,0,43.74.52c-.38.31-.79.77-1.18,1.15L40.14,4V3.92c.65.62,1.29,1.25,2,1.86l0,0,.31,1.43-.06-.07,1.45.26.06,0h0c.53.53,1.05,1.06,1.56,1.61h-.2C46.34,7.9,47.54,6.79,48.64,5.59Z"/><path class="cls-10" d="M48.65,5.6,45.33,9.17,43.78,7.55l-1.43-.3-.3-1.43L40.08,4l1-1c.49.16,1,.32,1.58.47,2.76.72,4.43.43,5.44-.13l.49.48A1.3,1.3,0,0,1,48.65,5.6Z"/><g class="cls-11"><path class="cls-12" d="M44.37.42h0a1.09,1.09,0,0,1,.74.3l2.83,2.75.49.48a1.05,1.05,0,0,1,0,1.48L45.33,8.81,44,7.38a.24.24,0,0,0-.13-.07L42.56,7,42.3,5.77a.29.29,0,0,0-.08-.14L40.44,4l.84-.85L43.61.74a1,1,0,0,1,.76-.32m0-.25a1.29,1.29,0,0,0-.94.39L41.1,3l-1,1,2,1.84.3,1.43,1.43.3,1.55,1.62L48.65,5.6a1.3,1.3,0,0,0,0-1.83l-.49-.48L45.28.54a1.29,1.29,0,0,0-.91-.37Z"/></g><ellipse class="cls-13" cx="45.28" cy="3.98" rx="0.96" ry="0.5" transform="translate(12.58 35.55) rotate(-49.02)"/><path class="cls-3" d="M45.66,4.32a2.15,2.15,0,0,1-.43.42.51.51,0,0,1-.65,0,.59.59,0,0,1,0-.64,3.29,3.29,0,0,1,.29-.52,1.67,1.67,0,0,1,.45-.43.61.61,0,0,1,.69,0,.56.56,0,0,1,0,.67A2.46,2.46,0,0,1,45.66,4.32Zm0,0c.24-.27.34-.79.18-1s-.63.11-.88.36a1.16,1.16,0,0,0-.32.47.44.44,0,0,0,.08.47A1,1,0,0,0,45.65,4.3Z"/><polygon class="cls-14" points="29.92 37.33 27.45 39.52 26.73 40.16 19.95 32.48 15.94 27.95 10.36 21.63 11.09 20.99 11.1 20.99 13.56 18.82 18.92 24.88 22.46 28.89 29.92 37.33"/><path class="cls-3" d="M29.94,37.33l-3.15,2.89a.09.09,0,0,1-.12,0h0l-4.13-4.6c-1.38-1.53-2.71-3.1-4.07-4.65L14.41,26.3l-4.12-4.61a.11.11,0,0,1,0-.13l.72-.64a.11.11,0,0,1,.08,0h0l-.08,0,2.44-2.19a.12.12,0,0,1,.18,0h0l4.11,4.61L21.86,28Zm0,0-4.17-4.59-4.11-4.55-8.16-9.28h.18l-2.48,2.14a.11.11,0,0,1-.07,0h0l.07,0-.73.64v-.13l4.06,4.66,4.14,4.59c1.37,1.54,2.76,3.06,4.11,4.61L26.8,40.1h-.12C27.74,39.14,28.81,38.28,29.9,37.33Z"/><polygon class="cls-14" points="29.92 37.33 27.45 39.52 26.73 40.16 19.95 32.48 15.94 27.95 10.36 21.63 11.09 20.99 11.1 20.99 13.56 18.82 18.92 24.88 22.46 28.89 29.92 37.33"/><polygon class="cls-15" points="27.45 39.52 26.73 40.16 19.95 32.48 15.94 27.95 10.36 21.63 11.09 20.99 11.1 20.99 27.45 39.52"/><g class="cls-16"><path class="cls-17" d="M11.08,21.2,27.24,39.5l-.49.44-6.68-7.56-4-4.53-5.48-6.21.51-.44m0-.21-.73.64L15.94,28l4,4.53,6.77,7.68.72-.64L11.1,21Z"/></g><path class="cls-18" d="M29.92,37.34l-3.19,2.82L20,32.48l-4-4.53a6.82,6.82,0,0,1,3-3.07l3.54,4Z"/><path class="cls-19" d="M29.92,37.34l-3.19,2.82L20,32.48a11.9,11.9,0,0,1,2.5-3.59Z"/></g></g></g></svg>